<svg viewBox="0 0 1024 1024" class="icon" version="1.1" xmlns="http://www.w3.org/2000/svg" fill="#000000"><g id="SVGRepo_bgCarrier" stroke-width="0"></g><g id="SVGRepo_tracerCarrier" stroke-linecap="round" stroke-linejoin="round"></g><g id="SVGRepo_iconCarrier"><path d="M341.3 39.4h109.6V149H341.3zM231.7 149.1h109.6v109.6H231.7zM122.1 258.7h109.6v109.6H122.1zM12.5 368.3h109.6v203.9H12.5z" fill="#1AC0D6"></path><path d="M12.5 462.6h999v109.6h-999zM122.1 670h779.8v109.6H122.1zM231.7 877.4h560.5V987H231.7zM573 39.4h109.6V149H573zM682.7 149.1h109.6v109.6H682.7zM792.3 258.7h109.6v109.6H792.3z" fill="#1AC0D6"></path><path d="M901.9 368.3h109.6v203.9H901.9z" fill="#1AC0D6"></path><path d="M372.8 364.5h278.4v98H372.8z" fill="#35D335"></path><path d="M463 274.4h98v155.4h-98z" fill="#35D335"></path></g></svg>